A.Little.Help.2010.PPV.HDRip.XVID.AC3.HQ.Hive-CM8


Thx Hive

CM8 Doing It Right The First Time :D


Source: PPV HDStream

Encode:
HDStream was very very good, still made the usual cleanup, looks like a bdrip in every way.
enjoy

Video: 720x400 @bitrate 1800 2pass
Audio: English AC3 5.1 @448
Sample: yes, included


Imdb: http://www.imdb.com/title/tt1319722/


General
Complete name : A.Little.Help.2010.PPV.HDRip.XVID.AC3.HQ.Hive-CM8.avi
Format : AVI
Format/Info : Audio Video Interleave
File size : 1.67 GiB
Duration : 1h 48mn
Overall bit rate : 2 193 Kbps
Writing application : Nandub v1.0rc2
Writing library : Nandub build 1853/release

Video
ID : 0
Format : MPEG-4 Visual
Format profile : Advanced Simple@L5
Format settings, BVOP : 2
Format settings, QPel : Yes
Format settings, GMC : No warppoints
Format settings, Matrix : Default (H.263)
Muxing mode : Packed bitstream
Codec ID : XVID
Codec ID/Hint : XviD
Duration : 1h 48mn
Bit rate : 1 800 Kbps
Width : 720 pixels
Height : 400 pixels
Display aspect ratio : 16:9
Frame rate : 23.976 fps
Color space : YUV
Chroma subsampling : 4:2:0
Bit depth : 8 bits
Scan type : Progressive
Compression mode : Lossy
Bits/(Pixel*Frame) : 0.261
Stream size : 1.37 GiB (82%)
Writing library : XviD 1.2.1 (UTC 2008-12-04)

Audio
ID : 1
Format : AC-3
Format/Info : Audio Coding 3
Mode extension : CM (complete main)
Codec ID : 2000
Duration : 1h 48mn
Bit rate mode : Constant
Bit rate : 384 Kbps
Channel(s) : 6 channels
Channel positions : Front: L C R, Side: L R, LFE
Sampling rate : 48.0 KHz
Bit depth : 16 bits
Compression mode : Lossy
Stream size : 299 MiB (18%)
Alignment : Split accross interleaves
Interleave, duration : 42 ms (1.00 video frame)
Interleave, preload duration : 500 ms

Plot:
A woman gets entangled in a series of bizarre lies in order to
take care of herself and her 12 year old son.

Cast:
Jenna Fischer ... Laura
Chris O'Donnell ... Bob
Kim Coates ... Mel Kaminsky
Lesley Ann Warren ... Joan
Brooke Smith ... Kathy Helms


Screens:

 
http://www.pix2links.com/images/04108952116617132713.png
    	 
http://www.pix2links.com/images/34667805118125752606.png
    	 
http://www.pix2links.com/images/90990488874845462948.png


ENJOY!    